<svg width="30" height="30" viewBox="0 0 30 30" fill="none" xmlns="http://www.w3.org/2000/svg">
<path d="M7.5 16.25C6.8125 16.25 6.25 16.8125 6.25 17.5C6.25 18.1875 6.8125 18.75 7.5 18.75C8.1875 18.75 8.75 18.1875 8.75 17.5C8.75 16.8125 8.1875 16.25 7.5 16.25ZM7.5 21.25C6.8125 21.25 6.25 21.8125 6.25 22.5C6.25 23.1875 6.8125 23.75 7.5 23.75C8.1875 23.75 8.75 23.1875 8.75 22.5C8.75 21.8125 8.1875 21.25 7.5 21.25ZM7.5 11.25C6.8125 11.25 6.25 11.8125 6.25 12.5C6.25 13.1875 6.8125 13.75 7.5 13.75C8.1875 13.75 8.75 13.1875 8.75 12.5C8.75 11.8125 8.1875 11.25 7.5 11.25ZM3.75 11.875C3.40625 11.875 3.125 12.1562 3.125 12.5C3.125 12.8437 3.40625 13.125 3.75 13.125C4.09375 13.125 4.375 12.8437 4.375 12.5C4.375 12.1562 4.09375 11.875 3.75 11.875ZM7.5 6.25C6.8125 6.25 6.25 6.8125 6.25 7.5C6.25 8.1875 6.8125 8.75 7.5 8.75C8.1875 8.75 8.75 8.1875 8.75 7.5C8.75 6.8125 8.1875 6.25 7.5 6.25ZM26.25 13.125C26.5937 13.125 26.875 12.8437 26.875 12.5C26.875 12.1562 26.5937 11.875 26.25 11.875C25.9062 11.875 25.625 12.1562 25.625 12.5C25.625 12.8437 25.9062 13.125 26.25 13.125ZM17.5 8.75C18.1875 8.75 18.75 8.1875 18.75 7.5C18.75 6.8125 18.1875 6.25 17.5 6.25C16.8125 6.25 16.25 6.8125 16.25 7.5C16.25 8.1875 16.8125 8.75 17.5 8.75ZM17.5 4.375C17.8437 4.375 18.125 4.09375 18.125 3.75C18.125 3.40625 17.8437 3.125 17.5 3.125C17.1562 3.125 16.875 3.40625 16.875 3.75C16.875 4.09375 17.1562 4.375 17.5 4.375ZM3.75 16.875C3.40625 16.875 3.125 17.1562 3.125 17.5C3.125 17.8437 3.40625 18.125 3.75 18.125C4.09375 18.125 4.375 17.8437 4.375 17.5C4.375 17.1562 4.09375 16.875 3.75 16.875ZM12.5 25.625C12.1562 25.625 11.875 25.9062 11.875 26.25C11.875 26.5937 12.1562 26.875 12.5 26.875C12.8437 26.875 13.125 26.5937 13.125 26.25C13.125 25.9062 12.8437 25.625 12.5 25.625ZM12.5 4.375C12.8437 4.375 13.125 4.09375 13.125 3.75C13.125 3.40625 12.8437 3.125 12.5 3.125C12.1562 3.125 11.875 3.40625 11.875 3.75C11.875 4.09375 12.1562 4.375 12.5 4.375ZM12.5 8.75C13.1875 8.75 13.75 8.1875 13.75 7.5C13.75 6.8125 13.1875 6.25 12.5 6.25C11.8125 6.25 11.25 6.8125 11.25 7.5C11.25 8.1875 11.8125 8.75 12.5 8.75ZM12.5 15.625C11.4625 15.625 10.625 16.4625 10.625 17.5C10.625 18.5375 11.4625 19.375 12.5 19.375C13.5375 19.375 14.375 18.5375 14.375 17.5C14.375 16.4625 13.5375 15.625 12.5 15.625ZM22.5 16.25C21.8125 16.25 21.25 16.8125 21.25 17.5C21.25 18.1875 21.8125 18.75 22.5 18.75C23.1875 18.75 23.75 18.1875 23.75 17.5C23.75 16.8125 23.1875 16.25 22.5 16.25ZM22.5 21.25C21.8125 21.25 21.25 21.8125 21.25 22.5C21.25 23.1875 21.8125 23.75 22.5 23.75C23.1875 23.75 23.75 23.1875 23.75 22.5C23.75 21.8125 23.1875 21.25 22.5 21.25ZM22.5 11.25C21.8125 11.25 21.25 11.8125 21.25 12.5C21.25 13.1875 21.8125 13.75 22.5 13.75C23.1875 13.75 23.75 13.1875 23.75 12.5C23.75 11.8125 23.1875 11.25 22.5 11.25ZM22.5 6.25C21.8125 6.25 21.25 6.8125 21.25 7.5C21.25 8.1875 21.8125 8.75 22.5 8.75C23.1875 8.75 23.75 8.1875 23.75 7.5C23.75 6.8125 23.1875 6.25 22.5 6.25ZM26.25 16.875C25.9062 16.875 25.625 17.1562 25.625 17.5C25.625 17.8437 25.9062 18.125 26.25 18.125C26.5937 18.125 26.875 17.8437 26.875 17.5C26.875 17.1562 26.5937 16.875 26.25 16.875ZM17.5 21.25C16.8125 21.25 16.25 21.8125 16.25 22.5C16.25 23.1875 16.8125 23.75 17.5 23.75C18.1875 23.75 18.75 23.1875 18.75 22.5C18.75 21.8125 18.1875 21.25 17.5 21.25ZM17.5 25.625C17.1562 25.625 16.875 25.9062 16.875 26.25C16.875 26.5937 17.1562 26.875 17.5 26.875C17.8437 26.875 18.125 26.5937 18.125 26.25C18.125 25.9062 17.8437 25.625 17.5 25.625ZM12.5 10.625C11.4625 10.625 10.625 11.4625 10.625 12.5C10.625 13.5375 11.4625 14.375 12.5 14.375C13.5375 14.375 14.375 13.5375 14.375 12.5C14.375 11.4625 13.5375 10.625 12.5 10.625ZM12.5 21.25C11.8125 21.25 11.25 21.8125 11.25 22.5C11.25 23.1875 11.8125 23.75 12.5 23.75C13.1875 23.75 13.75 23.1875 13.75 22.5C13.75 21.8125 13.1875 21.25 12.5 21.25ZM17.5 15.625C16.4625 15.625 15.625 16.4625 15.625 17.5C15.625 18.5375 16.4625 19.375 17.5 19.375C18.5375 19.375 19.375 18.5375 19.375 17.5C19.375 16.4625 18.5375 15.625 17.5 15.625ZM17.5 10.625C16.4625 10.625 15.625 11.4625 15.625 12.5C15.625 13.5375 16.4625 14.375 17.5 14.375C18.5375 14.375 19.375 13.5375 19.375 12.5C19.375 11.4625 18.5375 10.625 17.5 10.625Z" fill="white"/>
</svg>
