<svg width="30" height="30" viewBox="0 0 30 30" fill="none" xmlns="http://www.w3.org/2000/svg">
<path d="M15 20.625C18.1066 20.625 20.625 18.1066 20.625 15C20.625 11.8934 18.1066 9.375 15 9.375C11.8934 9.375 9.375 11.8934 9.375 15C9.375 18.1066 11.8934 20.625 15 20.625Z" fill="white"/>
<path d="M15 8.4375C15.2486 8.4375 15.4871 8.33873 15.6629 8.16291C15.8387 7.9871 15.9375 7.74864 15.9375 7.5V3.75C15.9375 3.50136 15.8387 3.2629 15.6629 3.08709C15.4871 2.91127 15.2486 2.8125 15 2.8125C14.7514 2.8125 14.5129 2.91127 14.3371 3.08709C14.1613 3.2629 14.0625 3.50136 14.0625 3.75V7.5C14.0625 7.74864 14.1613 7.9871 14.3371 8.16291C14.5129 8.33873 14.7514 8.4375 15 8.4375ZM15 21.5625C14.7514 21.5625 14.5129 21.6613 14.3371 21.8371C14.1613 22.0129 14.0625 22.2514 14.0625 22.5V26.25C14.0625 26.4986 14.1613 26.7371 14.3371 26.9129C14.5129 27.0887 14.7514 27.1875 15 27.1875C15.2486 27.1875 15.4871 27.0887 15.6629 26.9129C15.8387 26.7371 15.9375 26.4986 15.9375 26.25V22.5C15.9375 22.2514 15.8387 22.0129 15.6629 21.8371C15.4871 21.6613 15.2486 21.5625 15 21.5625ZM26.25 14.0625H22.5C22.2514 14.0625 22.0129 14.1613 21.8371 14.3371C21.6613 14.5129 21.5625 14.7514 21.5625 15C21.5625 15.2486 21.6613 15.4871 21.8371 15.6629C22.0129 15.8387 22.2514 15.9375 22.5 15.9375H26.25C26.4986 15.9375 26.7371 15.8387 26.9129 15.6629C27.0887 15.4871 27.1875 15.2486 27.1875 15C27.1875 14.7514 27.0887 14.5129 26.9129 14.3371C26.7371 14.1613 26.4986 14.0625 26.25 14.0625ZM20.8969 19.575C20.7175 19.4214 20.4868 19.3412 20.2509 19.3503C20.0149 19.3594 19.7911 19.4572 19.6242 19.6242C19.4572 19.7911 19.3594 20.0149 19.3503 20.2509C19.3412 20.4868 19.4214 20.7175 19.575 20.8969L22.2281 23.55C22.4038 23.7246 22.6414 23.8226 22.8891 23.8226C23.1367 23.8226 23.3743 23.7246 23.55 23.55C23.7246 23.3743 23.8226 23.1367 23.8226 22.8891C23.8226 22.6414 23.7246 22.4038 23.55 22.2281L20.8969 19.575ZM20.2406 10.6969C20.4866 10.6958 20.7223 10.5982 20.8969 10.425L23.55 7.77188C23.7036 7.59253 23.7838 7.36183 23.7747 7.12589C23.7656 6.88994 23.6678 6.66612 23.5008 6.49916C23.3339 6.3322 23.1101 6.23438 22.8741 6.22527C22.6382 6.21616 22.4075 6.29641 22.2281 6.45L19.575 9.10313C19.4004 9.27878 19.3024 9.51639 19.3024 9.76406C19.3024 10.0117 19.4004 10.2493 19.575 10.425C19.6626 10.5119 19.7665 10.5806 19.8807 10.6273C19.9949 10.6739 20.1172 10.6976 20.2406 10.6969ZM8.4375 15C8.4375 14.7514 8.33873 14.5129 8.16291 14.3371C7.9871 14.1613 7.74864 14.0625 7.5 14.0625H3.75C3.50136 14.0625 3.2629 14.1613 3.08709 14.3371C2.91127 14.5129 2.8125 14.7514 2.8125 15C2.8125 15.2486 2.91127 15.4871 3.08709 15.6629C3.2629 15.8387 3.50136 15.9375 3.75 15.9375H7.5C7.74864 15.9375 7.9871 15.8387 8.16291 15.6629C8.33873 15.4871 8.4375 15.2486 8.4375 15ZM9.10313 19.575L6.45 22.2281C6.27539 22.4038 6.17738 22.6414 6.17738 22.8891C6.17738 23.1367 6.27539 23.3743 6.45 23.55C6.62565 23.7246 6.86326 23.8226 7.11094 23.8226C7.35861 23.8226 7.59622 23.7246 7.77188 23.55L10.425 20.8969C10.5786 20.7175 10.6588 20.4868 10.6497 20.2509C10.6406 20.0149 10.5428 19.7911 10.3758 19.6242C10.2089 19.4572 9.98506 19.3594 9.74911 19.3503C9.51317 19.3412 9.28247 19.4214 9.10313 19.575ZM9.10313 10.425C9.27878 10.5996 9.51639 10.6976 9.76406 10.6976C10.0117 10.6976 10.2493 10.5996 10.425 10.425C10.5996 10.2493 10.6976 10.0117 10.6976 9.76406C10.6976 9.51639 10.5996 9.27878 10.425 9.10313L7.77188 6.45C7.68783 6.35186 7.58441 6.27215 7.4681 6.21588C7.35179 6.15961 7.2251 6.12799 7.09599 6.123C6.96688 6.11801 6.83813 6.13977 6.71782 6.1869C6.59752 6.23403 6.48825 6.30553 6.39689 6.39689C6.30553 6.48825 6.23403 6.59752 6.1869 6.71782C6.13977 6.83813 6.11801 6.96688 6.123 7.09599C6.12799 7.2251 6.15961 7.35179 6.21588 7.4681C6.27215 7.58441 6.35186 7.68783 6.45 7.77188L9.10313 10.425Z" fill="white"/>
</svg>
