<svg width="30" height="30" viewBox="0 0 30 30" fill="none" xmlns="http://www.w3.org/2000/svg">
<path d="M28.4156 11.4053C29.0771 13.8738 29.0771 16.1263 28.4156 18.5947L27.073 19.4079L23 17V12.5L27.2336 10.6722L28.4156 11.4053Z" fill="#BABABA"/>
<path d="M18.5947 1.58435C21.0632 2.24578 23.0139 3.37201 24.8209 5.17906L24.8556 6.56087L21 9L17 7L17.3925 2.25044L18.5947 1.58435Z" fill="white"/>
<path d="M24.8209 5.17908C26.628 6.98613 27.7542 8.93682 28.4156 11.4053L23 12.5L21 9L24.8209 5.17908Z" fill="#D5D5D5"/>
<path d="M5.1791 5.17906C6.98615 3.37201 8.93684 2.24578 11.4053 1.58435L12.8448 2.4723L12.5 7L8.5 9.5L5.15222 6.66983L5.1791 5.17906Z" fill="#161616"/>
<path d="M11.4053 1.58439C13.8738 0.922961 16.1262 0.922961 18.5947 1.58439L17 7H12.5L11.4053 1.58439Z" fill="black"/>
<path d="M1.58433 18.5947C0.9229 16.1262 0.9229 13.8738 1.58433 11.4053L7 13V18L3.10301 19.4114L1.58433 18.5947Z" fill="#252525"/>
<path d="M1.58435 11.4053C2.24578 8.93682 3.37201 6.98613 5.17906 5.17908L8.5 9.5L7 13L1.58435 11.4053Z" fill="#1E1E1E"/>
<path d="M11.4053 28.4156C8.93682 27.7542 6.98613 26.628 5.17908 24.8209L9 21L13.5 23L12.8359 27.7615L11.4053 28.4156Z" fill="#545454"/>
<path d="M5.17906 24.8209C3.37201 23.0139 2.24578 21.0632 1.58435 18.5947L7 18L9 21L5.17906 24.8209Z" fill="#343434"/>
<path d="M24.821 24.8209C23.0139 26.628 21.0632 27.7542 18.5947 28.4156L17.5 23L21.5 20.5L24.7804 23.3976L24.821 24.8209Z" fill="#787878"/>
<path d="M18.5947 28.4156C16.1262 29.0771 13.8738 29.0771 11.4053 28.4156L13.5 23H17.5L18.5947 28.4156Z" fill="#616161"/>
<path d="M28.4156 18.5947C27.7542 21.0632 26.628 23.0139 24.8209 24.8209L21.5 20.5L23 17L28.4156 18.5947Z" fill="#949494"/>
</svg>
